<svg width="34" height="34" viewBox="0 0 34 34" fill="none" xmlns="http://www.w3.org/2000/svg">
<g clip-path="url(#clip0_36_29)">
<path d="M30.9035 13.8967H20.0936V3.09581C20.0936 1.38615 18.7142 0 17.0045 0C15.2948 0 13.9162 1.38615 13.9162 3.09656V13.9042H3.10107C1.39141 13.9042 0.00151065 15.2903 0.00225952 17.0007C0.00151065 17.8552 0.346738 18.6385 0.90614 19.1979C1.46629 19.7588 2.23912 20.113 3.09283 20.113H13.9162V30.9057C13.9162 31.7609 14.2554 32.5352 14.8156 33.0939C15.3757 33.654 16.1463 34.0008 17.0015 34.0008C18.7104 34.0008 20.0936 32.6146 20.0936 30.9057V20.1123H30.9035C32.6131 20.1123 33.9993 18.7142 33.9985 17.0045C33.9978 15.2956 32.6116 13.8967 30.9035 13.8967Z" fill="#663333" fill-opacity="0.5"/>
</g>
<defs>
<clipPath id="clip0_36_29">
<rect width="34" height="34" fill="white"/>
</clipPath>
</defs>
</svg>
