<svg width="45" height="45" viewBox="0 0 45 45" fill="none" xmlns="http://www.w3.org/2000/svg">
<circle cx="22.5" cy="22.5" r="22.5" fill="#6576CF"/>
<g clip-path="url(#clip0_683_266)">
<path d="M26.6997 30.1252H17.3247C16.8031 30.1251 16.2885 30.0058 15.82 29.7766C15.3515 29.5473 14.9416 29.2141 14.6214 28.8024C14.3013 28.3906 14.0794 27.9112 13.9728 27.4006C13.8661 26.8901 13.8775 26.3619 14.0059 25.8564L15.9059 18.1002C15.9402 17.9615 16.0209 17.8387 16.1346 17.7523C16.2483 17.6659 16.3882 17.621 16.5309 17.6252H26.9997C27.1376 17.6189 27.2736 17.6584 27.3867 17.7375C27.4998 17.8166 27.5834 17.931 27.6247 18.0627L29.9872 25.6627C30.1487 26.1789 30.1859 26.7259 30.0958 27.2592C30.0056 27.7925 29.7907 28.297 29.4684 28.7314C29.1515 29.1677 28.7348 29.5218 28.2532 29.7643C27.7715 30.0067 27.2389 30.1305 26.6997 30.1252ZM16.9997 18.8752L15.1934 26.1564C15.113 26.4777 15.1066 26.813 15.1746 27.1371C15.2426 27.4612 15.3834 27.7656 15.5862 28.0274C15.789 28.2892 16.0486 28.5015 16.3454 28.6484C16.6422 28.7952 16.9685 28.8728 17.2997 28.8752H26.6747C27.0148 28.8757 27.3502 28.7956 27.6534 28.6413C27.9565 28.487 28.2187 28.263 28.4184 27.9877C28.6239 27.7108 28.7611 27.3892 28.8186 27.0493C28.8762 26.7093 28.8526 26.3605 28.7497 26.0314L26.5497 18.8752H16.9997Z" fill="white"/>
<path d="M24.5 22.625C24.3342 22.625 24.1753 22.5592 24.0581 22.4419C23.9408 22.3247 23.875 22.1658 23.875 22V17C23.875 16.5027 23.6775 16.0258 23.3258 15.6742C22.9742 15.3225 22.4973 15.125 22 15.125C21.5027 15.125 21.0258 15.3225 20.6742 15.6742C20.3225 16.0258 20.125 16.5027 20.125 17V22C20.125 22.1658 20.0592 22.3247 19.9419 22.4419C19.8247 22.5592 19.6658 22.625 19.5 22.625C19.3342 22.625 19.1753 22.5592 19.0581 22.4419C18.9408 22.3247 18.875 22.1658 18.875 22V17C18.875 16.1712 19.2042 15.3763 19.7903 14.7903C20.3763 14.2042 21.1712 13.875 22 13.875C22.8288 13.875 23.6237 14.2042 24.2097 14.7903C24.7958 15.3763 25.125 16.1712 25.125 17V22C25.125 22.1658 25.0592 22.3247 24.9419 22.4419C24.8247 22.5592 24.6658 22.625 24.5 22.625Z" fill="white"/>
</g>
<defs>
<clipPath id="clip0_683_266">
<rect width="20" height="20" fill="white" transform="translate(12 12)"/>
</clipPath>
</defs>
</svg>
