<svg width="45" height="45" viewBox="0 0 45 45" fill="none" xmlns="http://www.w3.org/2000/svg">
<circle cx="22.5" cy="22.5" r="22.5" fill="#B77DF1"/>
<g clip-path="url(#clip0_683_265)">
<path d="M30.4687 14H27.8125C27.5562 14 27.3362 14.1836 27.2896 14.4358L26.9824 16.125H14.5313C14.3538 16.125 14.1878 16.2143 14.0892 16.3616C13.9907 16.5089 13.9725 16.6967 14.041 16.8606L16.6972 23.2356C16.7798 23.4338 16.9733 23.5625 17.1875 23.5625H25.6304L25.2444 25.6875H18.25C17.9564 25.6875 17.7188 25.9251 17.7188 26.2188C17.7188 26.5124 17.9564 26.75 18.25 26.75H25.6875C25.9438 26.75 26.1638 26.5664 26.2105 26.3142L28.2556 15.0625H30.4687C30.7624 15.0625 31 14.8249 31 14.5312C31 14.2376 30.7624 14 30.4687 14ZM26.7894 17.1875L26.4034 19.3125H23.5625V17.1875H26.7894ZM22.5 17.1875V19.3125H20.375V17.1875H22.5ZM19.3125 17.1875V19.3125H16.2137L15.3282 17.1875H19.3125ZM17.5419 22.5L16.6563 20.375H19.3125V22.5H17.5419ZM20.375 22.5V20.375H22.5V22.5H20.375ZM23.5625 22.5V20.375H26.2105L25.8234 22.5H23.5625Z" fill="white"/>
<path d="M19.8437 27.8125C18.9639 27.8125 18.25 28.5253 18.25 29.4062C18.25 30.2872 18.9639 31 19.8437 31C20.7236 31 21.4375 30.2872 21.4375 29.4062C21.4375 28.5253 20.7236 27.8125 19.8437 27.8125Z" fill="white"/>
<path d="M24.0937 27.8125C23.2128 27.8125 22.5 28.5253 22.5 29.4062C22.5 30.2872 23.2128 31 24.0937 31C24.9747 31 25.6875 30.2872 25.6875 29.4062C25.6875 28.5253 24.9747 27.8125 24.0937 27.8125Z" fill="white"/>
</g>
<defs>
<clipPath id="clip0_683_265">
<rect width="17" height="17" fill="white" transform="translate(14 14)"/>
</clipPath>
</defs>
</svg>
