<svg width="34" height="34" viewBox="0 0 34 34" fill="none" xmlns="http://www.w3.org/2000/svg">
<g clip-path="url(#clip0_36_45)">
<path fill-rule="evenodd" clip-rule="evenodd" d="M30.2222 0H3.77778C1.7 0 0 1.7 0 3.77778V30.2222C0 32.3 1.7 34 3.77778 34H30.2222C32.3 34 34 32.3 34 30.2222V3.77778C34 1.7 32.3 0 30.2222 0ZM11.3333 26.4444H7.55556V22.6667H11.3333V26.4444ZM11.3333 18.8889H7.55556V15.1111H11.3333V18.8889ZM11.3333 11.3333H7.55556V7.55556H11.3333V11.3333ZM26.4444 26.4444H13.2222V22.6667H26.4444V26.4444ZM26.4444 18.8889H13.2222V15.1111H26.4444V18.8889ZM26.4444 11.3333H13.2222V7.55556H26.4444V11.3333Z" fill="#663333" fill-opacity="0.5"/>
</g>
<defs>
<clipPath id="clip0_36_45">
<rect width="34" height="34" fill="white"/>
</clipPath>
</defs>
</svg>
