<svg width="34" height="34" viewBox="0 0 34 34" fill="none" xmlns="http://www.w3.org/2000/svg">
<g clip-path="url(#clip0_36_35)">
<path d="M33.4293 15.4774L28.2765 10.3246V4.37213C28.2765 3.29585 27.4043 2.42361 26.3264 2.42361C25.251 2.42361 24.3789 3.29585 24.3789 4.37213V6.42703L20.5422 2.59017C18.6452 0.694293 15.3471 0.697656 13.4546 2.59361L0.570467 15.4774C-0.19011 16.2395 -0.19011 17.4726 0.570467 18.2335C1.33139 18.9954 2.56689 18.9954 3.32754 18.2335L16.2104 5.34937C16.6301 4.93189 17.3698 4.93189 17.7873 5.34814L30.6723 18.2335C31.0544 18.6145 31.5525 18.804 32.0505 18.804C32.5495 18.804 33.0485 18.6143 33.4294 18.2335C34.1902 17.4727 34.1902 16.2396 33.4293 15.4774Z" fill="#663333"/>
<path d="M17.6768 9.04813C17.3025 8.67402 16.6964 8.67402 16.3232 9.04813L4.99035 20.3776C4.81143 20.5565 4.70999 20.8007 4.70999 21.0555V29.3188C4.70999 31.2579 6.2822 32.83 8.22118 32.83H13.8321V24.1406H20.1667V32.83H25.7777C27.7166 32.83 29.2888 31.2579 29.2888 29.3189V21.0555C29.2888 20.8007 29.1883 20.5565 29.0085 20.3776L17.6768 9.04813Z" fill="#663333"/>
</g>
<defs>
<clipPath id="clip0_36_35">
<rect width="34" height="34" fill="white"/>
</clipPath>
</defs>
</svg>
