<svg width="34" height="34" viewBox="0 0 34 34" fill="none" xmlns="http://www.w3.org/2000/svg">
<g clip-path="url(#clip0_36_50)">
<path d="M33.9586 15.8263C33.3845 7.40197 26.5986 0.615462 18.1737 0.0408041L17.5684 0V16.4316H34L33.9586 15.8263Z" fill="#663333" fill-opacity="0.5"/>
<path d="M29.0944 28.9545L29.4945 28.5204C32.1117 25.6822 33.6974 22.0064 33.9586 18.1703L34 17.565H17.7056L29.0944 28.9545Z" fill="#663333" fill-opacity="0.5"/>
<path d="M14.1681 2.54062V17.8971V18.8362L14.8323 19.5004L24.8168 29.4844C22.4859 30.9442 19.7707 31.7331 17.0017 31.7331C8.87715 31.7331 2.26689 25.1228 2.26689 16.9983C2.26689 9.90066 7.36514 3.87015 14.1681 2.54062ZM16.435 0L15.8297 0.0408041C6.95313 0.646631 0 8.09451 0 16.9983C0 26.373 7.62696 34 17.0017 34C20.9274 34 24.7584 32.6257 27.7904 30.1315L28.2727 29.7348L16.435 17.8971V0Z" fill="#663333" fill-opacity="0.5"/>
</g>
<defs>
<clipPath id="clip0_36_50">
<rect width="34" height="34" fill="white"/>
</clipPath>
</defs>
</svg>
