<svg width="45" height="45" viewBox="0 0 45 45" fill="none" xmlns="http://www.w3.org/2000/svg">
<circle cx="22.5" cy="22.5" r="22.5" fill="#16DE96"/>
<path d="M14.5802 15.15C14.03 15.4599 14 15.6499 14 18.5494C14 20.1392 14.04 21.389 14.11 21.639C14.1901 21.9589 14.4001 22.2689 14.9003 22.7988C15.2704 23.1887 15.6406 23.6287 15.7106 23.7786C15.8206 23.9886 15.8606 24.7685 15.8806 27.1181C15.9007 28.8178 15.9507 30.1976 16.0007 30.1976C16.0507 30.1976 16.1207 30.2876 16.1507 30.4076C16.4108 31.1975 18.5916 31.1975 18.8517 30.4076C18.8817 30.2876 18.9517 30.1976 19.0017 30.1976C19.0517 30.1976 19.1017 28.8178 19.1218 27.1181C19.1418 24.7685 19.1818 23.9886 19.2918 23.7786C19.3618 23.6287 19.732 23.1887 20.1121 22.7888C20.5722 22.2989 20.8223 21.9489 20.8623 21.7289C20.8924 21.549 20.9624 21.369 21.0124 21.339C21.1224 21.269 21.1324 15.7999 21.0224 15.7999C20.9724 15.7999 20.8824 15.6899 20.8223 15.5499C20.6323 15.14 20.1821 14.98 19.3618 15.04C18.9717 15.07 18.5716 15.09 18.4815 15.09C18.2615 15.08 16.7609 15.08 16.5309 15.09C16.4308 15.09 16.0107 15.07 15.6005 15.05C15.0504 15.01 14.7803 15.04 14.5802 15.15ZM15.7406 16.3198C15.8706 16.4998 15.9007 16.8597 15.9007 18.1795C15.9007 19.9892 15.9407 20.0992 16.5009 20.0992C17.061 20.0992 17.1011 19.9892 17.1011 18.1695C17.1011 16.6697 17.1211 16.4998 17.3011 16.2898L17.5012 16.0498L17.7013 16.2898C17.8813 16.4998 17.9013 16.6697 17.9013 18.1695C17.9013 19.9892 17.9413 20.0992 18.5015 20.0992C19.0617 20.0992 19.1017 19.9892 19.1017 18.1695C19.1017 16.6697 19.1218 16.4998 19.3018 16.2898L19.5019 16.0498L19.712 16.2998C19.912 16.5298 19.912 16.6297 19.882 18.7494C19.852 20.3292 19.812 21.0291 19.712 21.219C19.6319 21.369 19.2718 21.8089 18.8917 22.2089C18.4315 22.6988 18.1814 23.0487 18.1414 23.2687C18.1114 23.4487 18.0414 23.6287 17.9914 23.6586C17.9413 23.6886 17.9013 24.9884 17.9013 26.5582C17.9013 28.3379 17.8613 29.4877 17.8013 29.6077C17.6613 29.8577 17.3411 29.8577 17.2011 29.6077C17.1411 29.4877 17.1011 28.3379 17.1011 26.5582C17.1011 24.9884 17.061 23.6886 17.011 23.6586C16.961 23.6287 16.891 23.4487 16.861 23.2687C16.821 23.0487 16.5709 22.6988 16.1107 22.2089C15.7306 21.8089 15.3705 21.369 15.2904 21.219C15.2004 21.0291 15.1504 20.3292 15.1204 18.7694C15.0904 16.8897 15.1104 16.5598 15.2404 16.3498C15.4405 16.0398 15.5405 16.0398 15.7406 16.3198Z" fill="white"/>
<path d="M25.5339 15.19C25.3639 15.3 25.1938 15.4799 25.1538 15.5899C25.1238 15.7099 25.0538 15.7999 25.0038 15.7999C24.9537 15.7999 24.9037 17.1797 24.8837 18.8694C24.8637 21.229 24.8237 22.0089 24.7137 22.2189C24.6436 22.3688 24.2735 22.8088 23.8934 23.2087C23.4332 23.6986 23.1831 24.0486 23.1431 24.2686C23.1131 24.4485 23.0431 24.6285 22.9931 24.6585C22.863 24.7285 22.873 26.8981 23.0031 26.8981C23.0631 26.8981 23.1031 27.0481 23.1031 27.2181C23.1131 27.678 23.3432 28.5779 23.5933 29.0678C23.7133 29.2978 23.8034 29.5277 23.8034 29.5677C23.8034 29.6177 23.8834 29.7277 23.9834 29.8177C24.0734 29.9077 24.3235 30.1576 24.5436 30.3776C24.9938 30.8475 25.4739 30.9975 26.5043 30.9975C27.5346 30.9975 28.0148 30.8475 28.4649 30.3776C28.685 30.1576 28.9351 29.9077 29.0351 29.8177C29.1252 29.7277 29.2052 29.6177 29.2052 29.5677C29.2052 29.5277 29.3052 29.2978 29.4153 29.0678C29.7454 28.4179 29.9755 27.1681 29.9955 25.9383C30.0255 24.3585 29.9254 24.0686 29.1052 23.1987C28.735 22.8088 28.3649 22.3688 28.2949 22.2189C28.1849 22.0089 28.1448 21.229 28.1248 18.8694C28.1048 17.1797 28.0548 15.7999 28.0048 15.7999C27.9548 15.7999 27.8848 15.7099 27.8547 15.5899C27.7347 15.23 27.2245 15 26.5043 15C26.0341 15 25.764 15.06 25.5339 15.19ZM26.7444 16.3198C26.8844 16.5098 26.9044 16.9797 26.9044 19.4193C26.9044 20.9991 26.9444 22.3089 26.9944 22.3389C27.0445 22.3688 27.1145 22.5488 27.1445 22.7288C27.1845 22.9488 27.4346 23.2987 27.8948 23.7886C28.2849 24.1986 28.645 24.6585 28.715 24.8285C29.0051 25.5184 28.7651 27.3781 28.2449 28.4379C27.8347 29.2978 27.6547 29.5177 27.2245 29.6877C26.5743 29.9577 25.664 29.7977 25.2739 29.3478C24.9537 28.9778 24.4236 27.758 24.3135 27.1481C24.1535 26.2782 24.1535 25.1684 24.2935 24.8285C24.3635 24.6585 24.7237 24.1986 25.1138 23.7886C25.574 23.2987 25.824 22.9488 25.8641 22.7288C25.8941 22.5488 25.9641 22.3688 26.0141 22.3389C26.0641 22.3089 26.1041 20.9991 26.1041 19.4193C26.1041 16.9797 26.1241 16.5098 26.2642 16.3198C26.3442 16.1998 26.4543 16.0998 26.5043 16.0998C26.5543 16.0998 26.6643 16.1998 26.7444 16.3198Z" fill="white"/>
</svg>
