<svg width="34" height="34" viewBox="0 0 34 34" fill="none" xmlns="http://www.w3.org/2000/svg">
<path d="M32.0688 14.4303L28.05 13.7734C27.8147 12.9669 27.4931 12.1917 27.0905 11.458L29.4365 8.11443C29.6262 7.84447 29.5936 7.47659 29.3604 7.24267L26.7158 4.59951C26.4799 4.36423 26.1086 4.33363 25.838 4.52879L22.5447 6.89587C21.8042 6.48651 21.0222 6.16147 20.211 5.92551L19.5099 1.92303C19.4528 1.59799 19.1706 1.35999 18.8401 1.35999H15.1001C14.7669 1.35999 14.4826 1.60139 14.4289 1.93051L13.7788 5.91123C12.9628 6.14583 12.1795 6.46747 11.4417 6.87139L8.15728 4.52539C7.88596 4.33159 7.51672 4.36287 7.28076 4.59747L4.6376 7.24063C4.40436 7.47387 4.37172 7.84107 4.56144 8.11103L6.87276 11.4179C6.46136 12.1625 6.1336 12.9506 5.89492 13.7707L1.92984 14.4309C1.60208 14.4853 1.36136 14.7696 1.36136 15.1014V18.8414C1.36136 19.1712 1.598 19.4534 1.92236 19.5112L5.88744 20.2143C6.12476 21.0324 6.45252 21.8205 6.86528 22.5671L4.5254 25.84C4.33228 26.1099 4.36288 26.4805 4.59748 26.7165L7.24132 29.3624C7.47456 29.5956 7.84244 29.6283 8.1124 29.4385L11.424 27.1191C12.1672 27.5277 12.9526 27.8521 13.7666 28.0874L14.4303 32.0729C14.484 32.3999 14.7676 32.64 15.1001 32.64H18.8401C19.1699 32.64 19.4521 32.4033 19.5092 32.079L20.2198 28.0738C21.0351 27.8337 21.8164 27.5073 22.5522 27.098L25.8876 29.4379C26.1582 29.6289 26.5254 29.5956 26.7594 29.3624L29.4032 26.7165C29.6385 26.4805 29.6691 26.1086 29.4739 25.8379L27.0953 22.5352C27.4985 21.8008 27.8188 21.0242 28.052 20.2177L32.0763 19.5112C32.402 19.4541 32.6386 19.1712 32.6386 18.8414V15.1014C32.6393 14.7682 32.3979 14.484 32.0688 14.4303ZM17 21.76C14.3711 21.76 12.24 19.6289 12.24 17C12.24 14.3711 14.3711 12.24 17 12.24C19.6289 12.24 21.76 14.3711 21.76 17C21.76 19.6289 19.6289 21.76 17 21.76Z" fill="#663333" fill-opacity="0.5"/>
</svg>
